<svg width="34" height="34" viewBox="0 0 34 34" fill="none" xmlns="http://www.w3.org/2000/svg">
<path d="M9.91667 12.75V9.91667H29.75V12.75H9.91667ZM9.91667 18.4167V15.5833H29.75V18.4167H9.91667ZM9.91667 24.0833V21.25H29.75V24.0833H9.91667ZM5.66667 12.75C5.26528 12.75 4.92882 12.6142 4.65729 12.3427C4.38576 12.0712 4.25 11.7347 4.25 11.3333C4.25 10.9319 4.38576 10.5955 4.65729 10.324C4.92882 10.0524 5.26528 9.91667 5.66667 9.91667C6.06806 9.91667 6.40451 10.0524 6.67604 10.324C6.94757 10.5955 7.08333 10.9319 7.08333 11.3333C7.08333 11.7347 6.94757 12.0712 6.67604 12.3427C6.40451 12.6142 6.06806 12.75 5.66667 12.75ZM5.66667 18.4167C5.26528 18.4167 4.92882 18.2809 4.65729 18.0094C4.38576 17.7378 4.25 17.4014 4.25 17C4.25 16.5986 4.38576 16.2622 4.65729 15.9906C4.92882 15.7191 5.26528 15.5833 5.66667 15.5833C6.06806 15.5833 6.40451 15.7191 6.67604 15.9906C6.94757 16.2622 7.08333 16.5986 7.08333 17C7.08333 17.4014 6.94757 17.7378 6.67604 18.0094C6.40451 18.2809 6.06806 18.4167 5.66667 18.4167ZM5.66667 24.0833C5.26528 24.0833 4.92882 23.9476 4.65729 23.676C4.38576 23.4045 4.25 23.0681 4.25 22.6667C4.25 22.2653 4.38576 21.9288 4.65729 21.6573C4.92882 21.3858 5.26528 21.25 5.66667 21.25C6.06806 21.25 6.40451 21.3858 6.67604 21.6573C6.94757 21.9288 7.08333 22.2653 7.08333 22.6667C7.08333 23.0681 6.94757 23.4045 6.67604 23.676C6.40451 23.9476 6.06806 24.0833 5.66667 24.0833Z" fill="#1D1B20"/>
</svg>
